<mxfile host="app.diagrams.net" modified="2022-07-24T14:55:25.638Z" agent="5.0 (Macintosh)" etag="1-kBT1riHCkhaWA-YRBD" version="20.1.3" type="github">
  <diagram id="rsuLpH8KgEvGk5WkiZxI" name="Page-1">
    <mxGraphModel dx="1090" dy="2268" grid="1" gridSize="10" guides="1" tooltips="1" connect="1" arrows="1" fold="1" page="1" pageScale="1" pageWidth="1169" pageHeight="1654" math="0" shadow="0">
      <root>
        <mxCell id="0" />
        <mxCell id="1" parent="0" />
        <mxCell id="XlGuziPXTp8Qo9VDGnD7-38" value="" style="rounded=1;whiteSpace=wrap;html=1;fillColor=#f5f5f5;fontColor=#333333;strokeColor=#666666;" vertex="1" parent="1">
          <mxGeometry x="140" y="20" width="470" height="140" as="geometry" />
        </mxCell>
        <mxCell id="XlGuziPXTp8Qo9VDGnD7-37" value="" style="rounded=1;whiteSpace=wrap;html=1;fillColor=#f5f5f5;fontColor=#333333;strokeColor=#666666;" vertex="1" parent="1">
          <mxGeometry x="670" y="20" width="160" height="260" as="geometry" />
        </mxCell>
        <mxCell id="XlGuziPXTp8Qo9VDGnD7-30" value="" style="rounded=1;whiteSpace=wrap;html=1;fillColor=#f5f5f5;fontColor=#333333;strokeColor=#666666;" vertex="1" parent="1">
          <mxGeometry x="420" y="390" width="660" height="100" as="geometry" />
        </mxCell>
        <mxCell id="XlGuziPXTp8Qo9VDGnD7-1" value="Realistic 3D indoor environments" style="rounded=1;whiteSpace=wrap;html=1;fillColor=#dae8fc;strokeColor=#6c8ebf;" vertex="1" parent="1">
          <mxGeometry x="150" y="30" width="120" height="40" as="geometry" />
        </mxCell>
        <mxCell id="XlGuziPXTp8Qo9VDGnD7-2" value="Objects" style="rounded=1;whiteSpace=wrap;html=1;" vertex="1" parent="1">
          <mxGeometry x="150" y="70" width="120" height="40" as="geometry" />
        </mxCell>
        <mxCell id="XlGuziPXTp8Qo9VDGnD7-3" value="Light sources" style="rounded=1;whiteSpace=wrap;html=1;" vertex="1" parent="1">
          <mxGeometry x="150" y="110" width="120" height="40" as="geometry" />
        </mxCell>
        <mxCell id="XlGuziPXTp8Qo9VDGnD7-5" value="Data base of reflectances" style="rounded=1;whiteSpace=wrap;html=1;fillColor=#dae8fc;strokeColor=#6c8ebf;" vertex="1" parent="1">
          <mxGeometry x="310" y="30" width="120" height="40" as="geometry" />
        </mxCell>
        <mxCell id="XlGuziPXTp8Qo9VDGnD7-6" value="Real-world spectral reflectances" style="rounded=1;whiteSpace=wrap;html=1;fillColor=#fff2cc;strokeColor=#d6b656;" vertex="1" parent="1">
          <mxGeometry x="310" y="70" width="120" height="40" as="geometry" />
        </mxCell>
        <mxCell id="XlGuziPXTp8Qo9VDGnD7-7" value="Data base of light sources" style="rounded=1;whiteSpace=wrap;html=1;fillColor=#dae8fc;strokeColor=#6c8ebf;" vertex="1" parent="1">
          <mxGeometry x="470" y="30" width="120" height="40" as="geometry" />
        </mxCell>
        <mxCell id="XlGuziPXTp8Qo9VDGnD7-8" value="Real-world spectral power distributions" style="rounded=1;whiteSpace=wrap;html=1;fillColor=#fff2cc;strokeColor=#d6b656;" vertex="1" parent="1">
          <mxGeometry x="470" y="110" width="120" height="40" as="geometry" />
        </mxCell>
        <mxCell id="XlGuziPXTp8Qo9VDGnD7-9" value="Computer rendering (mitsuba3)" style="rounded=1;whiteSpace=wrap;html=1;fillColor=#dae8fc;strokeColor=#6c8ebf;" vertex="1" parent="1">
          <mxGeometry x="690.5" y="30" width="120" height="40" as="geometry" />
        </mxCell>
        <mxCell id="XlGuziPXTp8Qo9VDGnD7-10" value="Scene in mitsuba3" style="rounded=1;whiteSpace=wrap;html=1;" vertex="1" parent="1">
          <mxGeometry x="690" y="70" width="120" height="80" as="geometry" />
        </mxCell>
        <mxCell id="XlGuziPXTp8Qo9VDGnD7-11" value="" style="endArrow=classic;html=1;rounded=0;exitX=1;exitY=0.5;exitDx=0;exitDy=0;entryX=0;entryY=0.5;entryDx=0;entryDy=0;" edge="1" parent="1" source="XlGuziPXTp8Qo9VDGnD7-2" target="XlGuziPXTp8Qo9VDGnD7-6">
          <mxGeometry width="50" height="50" relative="1" as="geometry">
            <mxPoint x="460" y="210" as="sourcePoint" />
            <mxPoint x="510" y="160" as="targetPoint" />
          </mxGeometry>
        </mxCell>
        <mxCell id="XlGuziPXTp8Qo9VDGnD7-12" value="" style="endArrow=classic;html=1;rounded=0;exitX=1;exitY=0.5;exitDx=0;exitDy=0;" edge="1" parent="1" source="XlGuziPXTp8Qo9VDGnD7-3" target="XlGuziPXTp8Qo9VDGnD7-8">
          <mxGeometry width="50" height="50" relative="1" as="geometry">
            <mxPoint x="280" y="100" as="sourcePoint" />
            <mxPoint x="320" y="100" as="targetPoint" />
          </mxGeometry>
        </mxCell>
        <mxCell id="XlGuziPXTp8Qo9VDGnD7-13" value="" style="endArrow=classic;html=1;rounded=0;exitX=1;exitY=0.5;exitDx=0;exitDy=0;entryX=0;entryY=0.25;entryDx=0;entryDy=0;" edge="1" parent="1" source="XlGuziPXTp8Qo9VDGnD7-6" target="XlGuziPXTp8Qo9VDGnD7-10">
          <mxGeometry width="50" height="50" relative="1" as="geometry">
            <mxPoint x="460" y="89.5" as="sourcePoint" />
            <mxPoint x="660" y="89.5" as="targetPoint" />
          </mxGeometry>
        </mxCell>
        <mxCell id="XlGuziPXTp8Qo9VDGnD7-14" value="" style="endArrow=classic;html=1;rounded=0;exitX=1;exitY=0.5;exitDx=0;exitDy=0;entryX=0;entryY=0.75;entryDx=0;entryDy=0;" edge="1" parent="1" source="XlGuziPXTp8Qo9VDGnD7-8" target="XlGuziPXTp8Qo9VDGnD7-10">
          <mxGeometry width="50" height="50" relative="1" as="geometry">
            <mxPoint x="460" y="210" as="sourcePoint" />
            <mxPoint x="510" y="160" as="targetPoint" />
          </mxGeometry>
        </mxCell>
        <mxCell id="XlGuziPXTp8Qo9VDGnD7-20" style="edgeStyle=orthogonalEdgeStyle;rounded=0;orthogonalLoop=1;jettySize=auto;html=1;exitX=0.5;exitY=1;exitDx=0;exitDy=0;entryX=0.5;entryY=0;entryDx=0;entryDy=0;" edge="1" parent="1" source="XlGuziPXTp8Qo9VDGnD7-15" target="XlGuziPXTp8Qo9VDGnD7-18">
          <mxGeometry relative="1" as="geometry" />
        </mxCell>
        <mxCell id="XlGuziPXTp8Qo9VDGnD7-21" style="edgeStyle=orthogonalEdgeStyle;rounded=0;orthogonalLoop=1;jettySize=auto;html=1;" edge="1" parent="1" source="XlGuziPXTp8Qo9VDGnD7-15" target="XlGuziPXTp8Qo9VDGnD7-19">
          <mxGeometry relative="1" as="geometry" />
        </mxCell>
        <mxCell id="XlGuziPXTp8Qo9VDGnD7-15" value="Realistic hyperspectral scenes" style="rounded=1;whiteSpace=wrap;html=1;fillColor=#ffe6cc;strokeColor=#d79b00;" vertex="1" parent="1">
          <mxGeometry x="690" y="180" width="120" height="80" as="geometry" />
        </mxCell>
        <mxCell id="XlGuziPXTp8Qo9VDGnD7-16" value="" style="endArrow=classic;html=1;rounded=0;entryX=0.5;entryY=0;entryDx=0;entryDy=0;exitX=0.5;exitY=1;exitDx=0;exitDy=0;" edge="1" parent="1" source="XlGuziPXTp8Qo9VDGnD7-10" target="XlGuziPXTp8Qo9VDGnD7-15">
          <mxGeometry width="50" height="50" relative="1" as="geometry">
            <mxPoint x="460" y="210" as="sourcePoint" />
            <mxPoint x="510" y="160" as="targetPoint" />
          </mxGeometry>
        </mxCell>
        <mxCell id="XlGuziPXTp8Qo9VDGnD7-27" style="edgeStyle=orthogonalEdgeStyle;rounded=0;orthogonalLoop=1;jettySize=auto;html=1;" edge="1" parent="1" source="XlGuziPXTp8Qo9VDGnD7-18" target="XlGuziPXTp8Qo9VDGnD7-26">
          <mxGeometry relative="1" as="geometry" />
        </mxCell>
        <mxCell id="XlGuziPXTp8Qo9VDGnD7-18" value="Irradiance (spatial averaged scenes)" style="rounded=1;whiteSpace=wrap;html=1;" vertex="1" parent="1">
          <mxGeometry x="610" y="320" width="120" height="60" as="geometry" />
        </mxCell>
        <mxCell id="XlGuziPXTp8Qo9VDGnD7-29" style="edgeStyle=orthogonalEdgeStyle;rounded=0;orthogonalLoop=1;jettySize=auto;html=1;" edge="1" parent="1" source="XlGuziPXTp8Qo9VDGnD7-19" target="XlGuziPXTp8Qo9VDGnD7-25">
          <mxGeometry relative="1" as="geometry" />
        </mxCell>
        <mxCell id="XlGuziPXTp8Qo9VDGnD7-19" value="Radiance images" style="rounded=1;whiteSpace=wrap;html=1;" vertex="1" parent="1">
          <mxGeometry x="770" y="320" width="120" height="60" as="geometry" />
        </mxCell>
        <mxCell id="XlGuziPXTp8Qo9VDGnD7-33" style="edgeStyle=orthogonalEdgeStyle;rounded=0;orthogonalLoop=1;jettySize=auto;html=1;endArrow=none;endFill=0;" edge="1" parent="1" source="XlGuziPXTp8Qo9VDGnD7-22" target="XlGuziPXTp8Qo9VDGnD7-26">
          <mxGeometry relative="1" as="geometry" />
        </mxCell>
        <mxCell id="XlGuziPXTp8Qo9VDGnD7-22" value="Real-world scene spectra" style="rounded=1;whiteSpace=wrap;html=1;fillColor=#fff2cc;strokeColor=#d6b656;" vertex="1" parent="1">
          <mxGeometry x="430" y="410" width="120" height="60" as="geometry" />
        </mxCell>
        <mxCell id="XlGuziPXTp8Qo9VDGnD7-34" style="edgeStyle=orthogonalEdgeStyle;rounded=0;orthogonalLoop=1;jettySize=auto;html=1;entryX=1;entryY=0.5;entryDx=0;entryDy=0;endArrow=none;endFill=0;" edge="1" parent="1" source="XlGuziPXTp8Qo9VDGnD7-23" target="XlGuziPXTp8Qo9VDGnD7-25">
          <mxGeometry relative="1" as="geometry" />
        </mxCell>
        <mxCell id="XlGuziPXTp8Qo9VDGnD7-23" value="Real-world &lt;span&gt;α-opic &lt;/span&gt;radiance images" style="rounded=1;whiteSpace=wrap;html=1;fillColor=#fff2cc;strokeColor=#d6b656;" vertex="1" parent="1">
          <mxGeometry x="950" y="410" width="120" height="60" as="geometry" />
        </mxCell>
        <mxCell id="XlGuziPXTp8Qo9VDGnD7-25" value="Synthetic &lt;span&gt;α-opic &lt;/span&gt;radiance images" style="rounded=1;whiteSpace=wrap;html=1;" vertex="1" parent="1">
          <mxGeometry x="770" y="410" width="120" height="60" as="geometry" />
        </mxCell>
        <mxCell id="XlGuziPXTp8Qo9VDGnD7-26" value="Synthetic &lt;span&gt;α-opic &lt;/span&gt;irradiance spectra" style="rounded=1;whiteSpace=wrap;html=1;" vertex="1" parent="1">
          <mxGeometry x="610" y="410" width="120" height="60" as="geometry" />
        </mxCell>
        <mxCell id="XlGuziPXTp8Qo9VDGnD7-35" value="Validation" style="text;strokeColor=none;fillColor=none;html=1;fontSize=20;fontStyle=0;verticalAlign=middle;align=center;" vertex="1" parent="1">
          <mxGeometry x="420" y="360" width="100" height="40" as="geometry" />
        </mxCell>
        <mxCell id="XlGuziPXTp8Qo9VDGnD7-36" value="Rendering" style="text;strokeColor=none;fillColor=none;html=1;fontSize=20;fontStyle=0;verticalAlign=middle;align=center;" vertex="1" parent="1">
          <mxGeometry x="700.5" y="-10" width="100" height="40" as="geometry" />
        </mxCell>
        <mxCell id="XlGuziPXTp8Qo9VDGnD7-39" value="&lt;div align=&quot;left&quot;&gt;World-building&lt;/div&gt;" style="text;strokeColor=none;fillColor=none;html=1;fontSize=20;fontStyle=0;verticalAlign=middle;align=left;" vertex="1" parent="1">
          <mxGeometry x="150" y="-10" width="100" height="40" as="geometry" />
        </mxCell>
        <mxCell id="XlGuziPXTp8Qo9VDGnD7-40" value="≟" style="text;whiteSpace=wrap;html=1;fontSize=20;" vertex="1" parent="1">
          <mxGeometry x="570" y="410" width="50" height="50" as="geometry" />
        </mxCell>
        <mxCell id="XlGuziPXTp8Qo9VDGnD7-41" value="≟" style="text;whiteSpace=wrap;html=1;fontSize=20;" vertex="1" parent="1">
          <mxGeometry x="910" y="410" width="50" height="50" as="geometry" />
        </mxCell>
        <mxCell id="XlGuziPXTp8Qo9VDGnD7-46" value="" style="endArrow=none;html=1;rounded=0;fontSize=20;startArrow=oval;startFill=1;" edge="1" parent="1">
          <mxGeometry width="50" height="50" relative="1" as="geometry">
            <mxPoint x="640" y="130" as="sourcePoint" />
            <mxPoint x="640" as="targetPoint" />
          </mxGeometry>
        </mxCell>
        <mxCell id="XlGuziPXTp8Qo9VDGnD7-47" value="" style="endArrow=none;html=1;rounded=0;fontSize=20;startArrow=oval;startFill=1;" edge="1" parent="1">
          <mxGeometry width="50" height="50" relative="1" as="geometry">
            <mxPoint x="640" y="90" as="sourcePoint" />
            <mxPoint x="640" as="targetPoint" />
          </mxGeometry>
        </mxCell>
        <mxCell id="XlGuziPXTp8Qo9VDGnD7-49" value="Combinatorial expansion" style="rounded=1;whiteSpace=wrap;html=1;" vertex="1" parent="1">
          <mxGeometry x="580.5" y="-40" width="120" height="40" as="geometry" />
        </mxCell>
      </root>
    </mxGraphModel>
  </diagram>
</mxfile>
